<svg id="Layer_1" data-name="Layer 1" xmlns="http://www.w3.org/2000/svg" viewBox="0 0 268.59 81.08"><defs><style>.cls-1{fill:#fff;}</style></defs><title>xtbc-logo-white</title><path class="cls-1" d="M774.4,841.29l-5-4.94-5,4.94-.4-.4,5-4.95-5-4.94.4-.4,5,4.94,5-4.94.41.4-5,4.94,5,4.95Zm7.77-9.15L778.58,836l3.59,3.33v9.44h-8.92l-3.87-3.59-3.33,3.59h-9.46v-9.49l3.61-3.31-3.61-3.87v-8.92h9.46l3.33,3.58,3.86-3.58h8.93ZM764.89,846l4.49-4.73,5,4.73h5v-5.62L774.89,836l4.54-5v-5.13h-5l-5,4.65-4.49-4.63h-5.54v5l4.76,5-4.76,4.49V846Z" transform="translate(-513.59 -823.14)"/><path class="cls-1" d="M522.62,886h-7.78a1.19,1.19,0,0,1-1.1-.51,1.25,1.25,0,0,1,0-1.22l12.18-24.12-11.78-22.93a1.18,1.18,0,0,1,0-1.18,1.16,1.16,0,0,1,1.09-.55h7.55a2.5,2.5,0,0,1,2.59,1.65L532.83,854h.31l7.39-16.89a2.61,2.61,0,0,1,2.51-1.65h7.7a1.24,1.24,0,0,1,1.14.59,1.19,1.19,0,0,1,0,1.22L540,860.1l12.17,24a1.3,1.3,0,0,1,.08,1.3,1.27,1.27,0,0,1-1.18.51H543.2a2.29,2.29,0,0,1-2.28-1.58l-7.78-17h-.31l-7.85,17A2.44,2.44,0,0,1,522.62,886Z" transform="translate(-513.59 -823.14)"/><path class="cls-1" d="M595.29,835.44H559.47c-1.32,0-2,.55-2,1.65v5.34c0,1.1.67,1.65,2,1.65h10.81c.69,0,1,.29,1,.87V884.3c0,1.1.69,1.65,2.08,1.65h8c1.33,0,2-.55,2-1.65V845q0-.87,1.14-.87h10.8c1.33,0,2-.55,2-1.65v-5.34C597.28,836,596.62,835.44,595.29,835.44Z" transform="translate(-513.59 -823.14)"/><path class="cls-1" d="M714.66,874.93V855.16H715L727.25,874l18.68-1.4v-35.5c0-1.1-.67-1.65-2-1.65h-7.87c-1.32,0-2,.55-2,1.65v29.22h-.38l-19.14-29.77a2.85,2.85,0,0,0-2.65-1.1H704.8c-1.32,0-2,.55-2,1.65v38.72Z" transform="translate(-513.59 -823.14)"/><path class="cls-1" d="M662.65,878.82V868.2c0-.58.37-.87,1.13-.87h6.35L676,877.82l12.45-.93-6-10.34v-.32q8.43-2.9,8.43-11.78v-6.12q0-6.14-4.17-9.51t-11.56-3.38H652.6c-1.32,0-2,.55-2,1.65v42.63Zm0-33.87c0-.58.34-.87,1-.87H673a7.33,7.33,0,0,1,4.46,1.1,4.24,4.24,0,0,1,1.42,3.54v6.12a4,4,0,0,1-1.42,3.42,7.5,7.5,0,0,1-4.46,1.06h-9.28c-.7,0-1-.29-1-.86Z" transform="translate(-513.59 -823.14)"/><path class="cls-1" d="M639.72,880.53V879q0-1.65-1.89-1.65H618c-.75,0-1.13-.29-1.13-.87V865.53c0-.58.38-.87,1.13-.87h16.21c1.32,0,2-.55,2-1.65v-5.34c0-1.1-.67-1.65-2-1.65H618c-.75,0-1.13-.28-1.13-.86V845c0-.58.38-.87,1.13-.87h19.81q1.89,0,1.89-1.65v-5.34q0-1.65-1.89-1.65h-31c-1.32,0-2,.55-2,1.65v46Z" transform="translate(-513.59 -823.14)"/><path class="cls-1" d="M640.5,903.91V889.85a.29.29,0,0,1,.32-.32h5.37a3.36,3.36,0,0,1,2.47.88,3.33,3.33,0,0,1,.89,2.46v1.25a2.5,2.5,0,0,1-1.92,2.63,2.18,2.18,0,0,1,1.49.77,2.67,2.67,0,0,1,.61,1.84v1.53a3.29,3.29,0,0,1-.9,2.46,3.43,3.43,0,0,1-2.48.88h-5.53A.29.29,0,0,1,640.5,903.91Zm1.9-7.87h3.51c1.35,0,2-.64,2-1.94v-1.21A1.72,1.72,0,0,0,646,891H642.4c-.16,0-.23.07-.23.23v4.66C642.17,896,642.24,896,642.4,896Zm0,6.77h3.74a1.73,1.73,0,0,0,2-1.94v-1.49c0-1.29-.7-1.94-2.1-1.94H642.4c-.16,0-.23.07-.23.2v4.94A.2.2,0,0,0,642.4,902.81Z" transform="translate(-513.59 -823.14)"/><path class="cls-1" d="M660.06,904.23h-2.72a3.1,3.1,0,0,1-3.38-3.39v-7.93a3.1,3.1,0,0,1,3.38-3.38h2.72a3.12,3.12,0,0,1,3.38,3.38v7.93a3.13,3.13,0,0,1-3.38,3.39Zm-2.53-1.47h2.33a1.72,1.72,0,0,0,1.92-2V893a1.73,1.73,0,0,0-1.92-2h-2.33c-1.27,0-1.9.67-1.9,2v7.8C655.63,902.1,656.26,902.76,657.53,902.76Z" transform="translate(-513.59 -823.14)"/><path class="cls-1" d="M673.84,904.23h-2.72a3.41,3.41,0,0,1-2.48-.89,3.37,3.37,0,0,1-.9-2.5v-7.93a3.37,3.37,0,0,1,.9-2.49,3.41,3.41,0,0,1,2.48-.89h2.72a3.13,3.13,0,0,1,3.39,3.38v7.93a3.14,3.14,0,0,1-3.39,3.39Zm-2.53-1.47h2.33a1.72,1.72,0,0,0,1.92-2V893a1.73,1.73,0,0,0-1.92-2h-2.33c-1.27,0-1.9.67-1.9,2v7.8C669.41,902.1,670,902.76,671.31,902.76Z" transform="translate(-513.59 -823.14)"/><path class="cls-1" d="M685.34,904.23h-1a.29.29,0,0,1-.32-.32V891.2c0-.14-.08-.21-.23-.21h-3.11c-.23,0-.34-.1-.34-.32v-.82c0-.21.11-.32.34-.32H689a.3.3,0,0,1,.34.32v.82c0,.22-.12.32-.34.32h-3.11c-.15,0-.23.07-.23.21v12.71A.29.29,0,0,1,685.34,904.23Z" transform="translate(-513.59 -823.14)"/><path class="cls-1" d="M698.55,904.23h-2.74a3.38,3.38,0,0,1-2.48-.89,3.34,3.34,0,0,1-.91-2.5v-7.93a3.33,3.33,0,0,1,.91-2.49,3.38,3.38,0,0,1,2.48-.89h2.74a3.1,3.1,0,0,1,3.38,3.38V894a.28.28,0,0,1-.32.32h-1a.28.28,0,0,1-.32-.32v-1a1.73,1.73,0,0,0-1.92-2H696c-1.27,0-1.9.67-1.9,2v7.8c0,1.32.63,2,1.9,2h2.35a1.72,1.72,0,0,0,1.92-2v-1.06a.29.29,0,0,1,.32-.32h1a.29.29,0,0,1,.32.32v1.12a3.1,3.1,0,0,1-3.38,3.39Z" transform="translate(-513.59 -823.14)"/><path class="cls-1" d="M706.34,904.23H705.2c-.2,0-.27-.11-.21-.32l4.28-14.06a.41.41,0,0,1,.43-.32h1.65a.41.41,0,0,1,.43.32l4.27,14.06c.07.21,0,.32-.2.32h-1.17c-.16,0-.27-.11-.32-.32l-1.07-3.34h-5.53l-1.08,3.34C706.62,904.12,706.51,904.23,706.34,904.23Zm4.14-13-2.36,7.91h4.8l-2.35-7.91Z" transform="translate(-513.59 -823.14)"/><path class="cls-1" d="M730,889.53h1.86a.28.28,0,0,1,.31.32v14.06a.28.28,0,0,1-.31.32h-1a.29.29,0,0,1-.32-.32V891.77h-.09l-3.54,9a.45.45,0,0,1-.42.3h-1.09a.38.38,0,0,1-.39-.3l-3.61-9h-.09v12.16c0,.21-.1.32-.3.32h-1a.29.29,0,0,1-.32-.32V889.85a.29.29,0,0,1,.32-.32h1.85a.27.27,0,0,1,.28.18l3.75,9.47H726l3.75-9.47A.24.24,0,0,1,730,889.53Z" transform="translate(-513.59 -823.14)"/><path class="cls-1" d="M738.25,904.23h-1a.28.28,0,0,1-.32-.32V889.85a.28.28,0,0,1,.32-.32h5.35a3.29,3.29,0,0,1,2.46.9,3.37,3.37,0,0,1,.9,2.48v2.54a3.33,3.33,0,0,1-.9,2.49,3.29,3.29,0,0,1-2.46.89h-3.78c-.15,0-.22.07-.22.21v4.87A.29.29,0,0,1,738.25,904.23Zm.54-6.88h3.55a1.72,1.72,0,0,0,1.92-2V893a1.73,1.73,0,0,0-1.92-2h-3.55c-.15,0-.22.07-.22.21v5.94C738.57,897.28,738.64,897.35,738.79,897.35Z" transform="translate(-513.59 -823.14)"/></svg>